<?xml version="1.0" encoding="UTF-8" standalone="no"?>
<!-- Created with Inkscape (http://www.inkscape.org/) -->

<svg
   xmlns:dc="http://purl.org/dc/elements/1.1/"
   xmlns:cc="http://creativecommons.org/ns#"
   xmlns:rdf="http://www.w3.org/1999/02/22-rdf-syntax-ns#"
   xmlns:svg="http://www.w3.org/2000/svg"
   xmlns="http://www.w3.org/2000/svg"
   xmlns:sodipodi="http://sodipodi.sourceforge.net/DTD/sodipodi-0.dtd"
   xmlns:inkscape="http://www.inkscape.org/namespaces/inkscape"
   width="210mm"
   height="297mm"
   viewBox="0 0 744.09448819 1052.3622047"
   id="svg2"
   version="1.1"
   inkscape:version="0.91 r13725"
   sodipodi:docname="icon.svg">
  <defs
     id="defs4" />
  <sodipodi:namedview
     id="base"
     pagecolor="#ffffff"
     bordercolor="#666666"
     borderopacity="1.0"
     inkscape:pageopacity="0.0"
     inkscape:pageshadow="2"
     inkscape:zoom="0.49497475"
     inkscape:cx="122.56339"
     inkscape:cy="876.72233"
     inkscape:document-units="px"
     inkscape:current-layer="layer1"
     showgrid="false"
     inkscape:window-width="1440"
     inkscape:window-height="851"
     inkscape:window-x="0"
     inkscape:window-y="1"
     inkscape:window-maximized="1" />
  <metadata
     id="metadata7">
    <rdf:RDF>
      <cc:Work
         rdf:about="">
        <dc:format>image/svg+xml</dc:format>
        <dc:type
           rdf:resource="http://purl.org/dc/dcmitype/StillImage" />
        <dc:title></dc:title>
      </cc:Work>
    </rdf:RDF>
  </metadata>
  <g
     inkscape:label="Layer 1"
     inkscape:groupmode="layer"
     id="layer1">
    <rect
       style="opacity:0;fill:#629d62;fill-opacity:1;stroke:none;stroke-width:15.80000019;stroke-miterlimit:4;stroke-dasharray:none;stroke-opacity:1"
       id="rect4136"
       width="714.28571"
       height="714.28571"
       x="0"
       y="6.6479192"
       inkscape:export-xdpi="64.510002"
       inkscape:export-ydpi="64.510002" />
    <path
       style="opacity:1;fill:#ff2a2a;fill-opacity:1;stroke:#000000;stroke-width:12;stroke-miterlimit:4;stroke-dasharray:none;stroke-opacity:1"
       d="M 367.89258 28.673828 C 365.69722 28.665525 363.53236 28.726627 361.39648 28.859375 C 344.30945 29.921357 327.5543 36.940547 318.83398 51.935547 C 307.37236 71.644355 304.67286 92.034791 310.89648 109.56445 C 317.12011 127.09412 330.63849 140.61727 347.17969 152.08594 C 380.26207 175.02328 427.62573 191.29522 474.1543 207.64844 C 520.68287 224.00166 566.40472 240.47851 592.68359 258.75781 C 605.82303 267.89747 613.45916 277.02051 616.04102 285.19141 C 618.62287 293.3623 617.87662 302.19231 608.76562 316.16992 C 598.76076 331.5189 586.86125 338.00273 569.87305 339.95508 C 552.88484 341.90743 530.74126 337.98179 505.54102 329.08984 C 455.14053 311.30595 393.24619 274.43571 331.42188 237.35742 C 269.59755 200.27914 207.87907 162.99012 153.9043 144.31445 C 126.91691 134.97662 101.63235 130.05379 78.345703 133.64258 C 55.059058 137.23136 34.200909 150.87566 21.478516 173.96875 C 14.403427 186.81112 13.335875 201.47715 16.912109 214.56055 C 20.488344 227.64394 28.002961 239.43274 37.564453 250.54492 C 56.687437 272.76928 84.585833 292.75614 113.51367 310.38281 C 171.36935 345.63616 233.85547 370.76953 233.85547 370.76953 L 245.07812 342.94727 C 245.07812 342.94727 184.1752 318.30873 129.12305 284.76367 C 101.59697 267.99114 75.66013 248.82236 60.304688 230.97656 C 52.626965 222.05366 47.743411 213.57873 45.849609 206.65039 C 43.955808 199.72206 44.348269 194.62866 47.755859 188.44336 C 56.641393 172.31476 67.266767 165.70473 82.916016 163.29297 C 98.565264 160.88121 119.66848 164.21206 144.0957 172.66406 C 192.95015 189.56806 254.1679 226.00767 315.99219 263.08594 C 377.81647 300.1642 440.28508 337.87751 495.55859 357.38086 C 523.19535 367.13254 549.21559 372.52728 573.29688 369.75977 C 597.37815 366.99225 619.45061 354.71592 633.89844 332.55078 C 646.29505 313.53252 650.15835 293.59598 644.64648 276.15234 C 639.13462 258.70871 625.9735 245.36897 609.81445 234.12891 C 577.49636 211.64879 530.60974 195.69176 484.10156 179.3457 C 437.59338 162.99965 391.49521 146.30754 364.27344 127.43359 C 350.66255 117.99662 342.31845 108.4011 339.16797 99.527344 C 336.01748 90.653583 336.4288 81.356501 344.76758 67.017578 C 347.58837 62.167088 352.05245 59.499162 363.25781 58.802734 C 374.46317 58.106306 390.83862 60.700113 409.79688 66.347656 C 447.71335 77.642743 496.02687 100.54229 542.91602 126.03711 C 636.6943 177.02674 725.21289 238.12109 725.21289 238.12109 L 742.25977 213.43359 C 742.25977 213.43359 652.89441 151.6861 557.24609 99.679688 C 509.42194 73.676479 460.13566 50.040018 418.36133 37.595703 C 400.08505 32.151316 383.26005 28.73195 367.89258 28.673828 z M 265.80273 374.6875 L 303.95898 423.68359 L 324.42773 395.19141 L 265.80273 374.6875 z M 350.97266 404.47656 L 321.23438 445.86914 L 330.37305 457.60352 L 390.29102 534.54492 L 457.07227 441.58789 L 364.98242 409.37695 L 350.97266 404.47656 z M 478.71094 457.70117 L 409.44141 554.12109 L 780.20117 820.47852 L 849.4707 724.05859 L 478.71094 457.70117 z "
       id="rect4138" />
    <path
       sodipodi:nodetypes="csssc"
       inkscape:connector-curvature="0"
       id="path4154"
       d="m -528.24861,189.1728 c 0,0 -246.78102,-99.541482 -204.85031,-175.652152 C -646.6672,-143.36613 -244.19405,306.73169 -146.38324,156.67522 -60.352884,24.691738 -515.11586,27.981848 -435.91425,-108.20907 -389.7498,-187.59104 -33.978824,58.092048 -33.978824,58.092048"
       style="fill:none;fill-rule:evenodd;stroke:#000000;stroke-width:30;stroke-linecap:butt;stroke-linejoin:miter;stroke-miterlimit:4;stroke-dasharray:none;stroke-opacity:1" />
  </g>
</svg>
